<?xml version="1.0"?><svg xmlns="http://www.w3.org/2000/svg"  viewBox="0 0 24 24" width="24px" height="24px">    <path d="M 9 3 C 5.134 3 2 5.686 2 9 C 2 10.127 2.369 11.177125 3 12.078125 L 3 17 L 6.2890625 14.533203 C 6.856243 14.737225 7.4643106 14.873056 8.0957031 14.943359 C 8.6249384 17.807777 11.50952 20 15 20 C 15.961 20 16.876938 19.833203 17.710938 19.533203 L 21 22 L 21 17.078125 C 21.631 16.177125 22 15.127 22 14 C 22 10.949595 19.341624 8.437958 15.904297 8.0566406 C 15.375062 5.1922234 12.49048 3 9 3 z M 9 5 C 11.757 5 14 6.794 14 9 C 14 11.206 11.757 13 9 13 C 8.293 13 7.60975 12.882391 6.96875 12.650391 L 5.953125 12.285156 L 5.0898438 12.931641 L 5 13 L 5 12.078125 L 5 11.447266 L 4.6386719 10.931641 C 4.2156719 10.327641 4 9.677 4 9 C 4 6.794 6.243 5 9 5 z M 15.880859 10.072266 C 18.217382 10.407299 20 12.035492 20 14 C 20 14.677 19.784328 15.326641 19.361328 15.931641 L 19 16.447266 L 19 17.078125 L 19 18 L 18.910156 17.933594 L 18.048828 17.285156 L 17.033203 17.652344 C 16.391203 17.883344 15.707 18 15 18 C 12.637965 18 10.664723 16.678599 10.144531 14.914062 C 13.055738 14.5025 15.357281 12.554984 15.880859 10.072266 z"/></svg>